<mxfile host="Electron" agent="Mozilla/5.0 (Windows NT 10.0; Win64; x64) AppleWebKit/537.36 (KHTML, like Gecko) draw.io/24.7.17 Chrome/128.0.6613.36 Electron/32.0.1 Safari/537.36" version="24.7.17">
  <diagram name="Sivu-1" id="CSNJLq2KtaClq7P0TRSl">
    <mxGraphModel dx="1302" dy="758" grid="1" gridSize="10" guides="1" tooltips="1" connect="1" arrows="1" fold="1" page="1" pageScale="1" pageWidth="827" pageHeight="1169" background="none" math="0" shadow="0">
      <root>
        <mxCell id="0" />
        <mxCell id="1" parent="0" />
        <mxCell id="oSgGNJzz3xrOAS5L9g05-20" value="Interface" style="rounded=1;whiteSpace=wrap;html=1;dashed=1;labelPosition=center;verticalLabelPosition=top;align=center;verticalAlign=bottom;" vertex="1" parent="1">
          <mxGeometry x="140" y="100" width="180" height="230" as="geometry" />
        </mxCell>
        <mxCell id="oSgGNJzz3xrOAS5L9g05-11" value="" style="rounded=1;whiteSpace=wrap;html=1;dashed=1;" vertex="1" parent="1">
          <mxGeometry x="680" y="230" width="130" height="150" as="geometry" />
        </mxCell>
        <mxCell id="oSgGNJzz3xrOAS5L9g05-6" style="edgeStyle=orthogonalEdgeStyle;rounded=0;orthogonalLoop=1;jettySize=auto;html=1;exitX=1;exitY=0.75;exitDx=0;exitDy=0;entryX=0;entryY=0.5;entryDx=0;entryDy=0;" edge="1" parent="1" source="HYynQutMlUrP4H1dGI5c-1" target="HYynQutMlUrP4H1dGI5c-9">
          <mxGeometry relative="1" as="geometry" />
        </mxCell>
        <mxCell id="oSgGNJzz3xrOAS5L9g05-8" style="edgeStyle=orthogonalEdgeStyle;rounded=0;orthogonalLoop=1;jettySize=auto;html=1;exitX=1;exitY=0.18;exitDx=0;exitDy=0;exitPerimeter=0;" edge="1" parent="1" source="HYynQutMlUrP4H1dGI5c-1" target="HYynQutMlUrP4H1dGI5c-11">
          <mxGeometry relative="1" as="geometry" />
        </mxCell>
        <mxCell id="oSgGNJzz3xrOAS5L9g05-14" style="edgeStyle=orthogonalEdgeStyle;rounded=0;orthogonalLoop=1;jettySize=auto;html=1;exitX=1;exitY=0.36;exitDx=0;exitDy=0;exitPerimeter=0;entryX=0;entryY=0.5;entryDx=0;entryDy=0;" edge="1" parent="1" source="HYynQutMlUrP4H1dGI5c-1" target="HYynQutMlUrP4H1dGI5c-12">
          <mxGeometry relative="1" as="geometry" />
        </mxCell>
        <mxCell id="HYynQutMlUrP4H1dGI5c-1" value="Microcontroller" style="rounded=1;whiteSpace=wrap;html=1;fontSize=14;points=[[0,0,0,0,0],[0,0.25,0,0,0],[0,0.5,0,0,0],[0,0.75,0,0,0],[0,1,0,0,0],[0.25,0,0,0,0],[0.25,1,0,0,0],[0.5,0,0,0,0],[0.5,1,0,0,0],[0.75,0,0,0,0],[0.75,1,0,0,0],[1,0,0,0,0],[1,0.09,0,0,0],[1,0.18,0,0,0],[1,0.25,0,0,0],[1,0.27,0,0,0],[1,0.36,0,0,0],[1,0.45,0,0,0],[1,0.5,0,0,0],[1,0.55,0,0,0],[1,0.64,0,0,0],[1,0.73,0,0,0],[1,0.75,0,0,0],[1,0.82,0,0,0],[1,0.91,0,0,0],[1,1,0,0,0]];" parent="1" vertex="1">
          <mxGeometry x="350" y="130" width="190" height="460" as="geometry" />
        </mxCell>
        <mxCell id="HYynQutMlUrP4H1dGI5c-2" value="Power button" style="rounded=1;whiteSpace=wrap;html=1;" parent="1" vertex="1">
          <mxGeometry x="190" y="150" width="80" height="40" as="geometry" />
        </mxCell>
        <mxCell id="HYynQutMlUrP4H1dGI5c-7" value="Reset button" style="rounded=1;whiteSpace=wrap;html=1;" parent="1" vertex="1">
          <mxGeometry x="190" y="210" width="80" height="40" as="geometry" />
        </mxCell>
        <mxCell id="HYynQutMlUrP4H1dGI5c-9" value="Display" style="rounded=1;whiteSpace=wrap;html=1;" parent="1" vertex="1">
          <mxGeometry x="630" y="520" width="80" height="40" as="geometry" />
        </mxCell>
        <mxCell id="HYynQutMlUrP4H1dGI5c-11" value="Buzzer" style="rounded=1;whiteSpace=wrap;html=1;" parent="1" vertex="1">
          <mxGeometry x="660" y="150" width="80" height="40" as="geometry" />
        </mxCell>
        <mxCell id="HYynQutMlUrP4H1dGI5c-12" value="Sensor LED" style="rounded=1;whiteSpace=wrap;html=1;" parent="1" vertex="1">
          <mxGeometry x="710" y="260" width="80" height="40" as="geometry" />
        </mxCell>
        <mxCell id="oSgGNJzz3xrOAS5L9g05-17" style="edgeStyle=orthogonalEdgeStyle;rounded=0;orthogonalLoop=1;jettySize=auto;html=1;entryX=0.5;entryY=0;entryDx=0;entryDy=0;" edge="1" parent="1" source="HYynQutMlUrP4H1dGI5c-13" target="oSgGNJzz3xrOAS5L9g05-16">
          <mxGeometry relative="1" as="geometry" />
        </mxCell>
        <mxCell id="HYynQutMlUrP4H1dGI5c-13" value="Battery" style="rounded=1;whiteSpace=wrap;html=1;" parent="1" vertex="1">
          <mxGeometry x="30" y="400" width="80" height="40" as="geometry" />
        </mxCell>
        <mxCell id="HYynQutMlUrP4H1dGI5c-14" value="Sensor Receiver" style="rounded=1;whiteSpace=wrap;html=1;" parent="1" vertex="1">
          <mxGeometry x="710" y="320" width="80" height="40" as="geometry" />
        </mxCell>
        <mxCell id="oSgGNJzz3xrOAS5L9g05-5" style="edgeStyle=orthogonalEdgeStyle;rounded=0;orthogonalLoop=1;jettySize=auto;html=1;" edge="1" parent="1" source="oSgGNJzz3xrOAS5L9g05-1" target="HYynQutMlUrP4H1dGI5c-9">
          <mxGeometry relative="1" as="geometry">
            <Array as="points">
              <mxPoint x="270" y="690" />
              <mxPoint x="670" y="690" />
            </Array>
          </mxGeometry>
        </mxCell>
        <mxCell id="oSgGNJzz3xrOAS5L9g05-1" value="Boost Converter" style="rounded=1;whiteSpace=wrap;html=1;" vertex="1" parent="1">
          <mxGeometry x="230" y="510" width="80" height="40" as="geometry" />
        </mxCell>
        <mxCell id="oSgGNJzz3xrOAS5L9g05-4" style="edgeStyle=orthogonalEdgeStyle;rounded=0;orthogonalLoop=1;jettySize=auto;html=1;exitX=1;exitY=0.5;exitDx=0;exitDy=0;entryX=0.014;entryY=0.878;entryDx=0;entryDy=0;entryPerimeter=0;" edge="1" parent="1" source="oSgGNJzz3xrOAS5L9g05-1" target="HYynQutMlUrP4H1dGI5c-1">
          <mxGeometry relative="1" as="geometry" />
        </mxCell>
        <mxCell id="oSgGNJzz3xrOAS5L9g05-9" style="edgeStyle=orthogonalEdgeStyle;rounded=0;orthogonalLoop=1;jettySize=auto;html=1;exitX=1;exitY=0.5;exitDx=0;exitDy=0;entryX=0;entryY=0.088;entryDx=0;entryDy=0;entryPerimeter=0;" edge="1" parent="1" source="HYynQutMlUrP4H1dGI5c-2" target="HYynQutMlUrP4H1dGI5c-1">
          <mxGeometry relative="1" as="geometry" />
        </mxCell>
        <mxCell id="oSgGNJzz3xrOAS5L9g05-10" style="edgeStyle=orthogonalEdgeStyle;rounded=0;orthogonalLoop=1;jettySize=auto;html=1;entryX=1;entryY=0.48;entryDx=0;entryDy=0;entryPerimeter=0;" edge="1" parent="1" source="oSgGNJzz3xrOAS5L9g05-12" target="HYynQutMlUrP4H1dGI5c-1">
          <mxGeometry relative="1" as="geometry" />
        </mxCell>
        <mxCell id="oSgGNJzz3xrOAS5L9g05-13" value="" style="edgeStyle=orthogonalEdgeStyle;rounded=0;orthogonalLoop=1;jettySize=auto;html=1;entryX=1;entryY=0.48;entryDx=0;entryDy=0;entryPerimeter=0;" edge="1" parent="1" source="HYynQutMlUrP4H1dGI5c-14" target="oSgGNJzz3xrOAS5L9g05-12">
          <mxGeometry relative="1" as="geometry">
            <mxPoint x="710" y="340" as="sourcePoint" />
            <mxPoint x="540" y="351" as="targetPoint" />
          </mxGeometry>
        </mxCell>
        <mxCell id="oSgGNJzz3xrOAS5L9g05-12" value="Signal prosessing ?" style="rounded=1;whiteSpace=wrap;html=1;" vertex="1" parent="1">
          <mxGeometry x="580" y="330" width="80" height="40" as="geometry" />
        </mxCell>
        <mxCell id="oSgGNJzz3xrOAS5L9g05-15" style="edgeStyle=orthogonalEdgeStyle;rounded=0;orthogonalLoop=1;jettySize=auto;html=1;exitX=1;exitY=0.5;exitDx=0;exitDy=0;entryX=0;entryY=0.218;entryDx=0;entryDy=0;entryPerimeter=0;" edge="1" parent="1" source="HYynQutMlUrP4H1dGI5c-7" target="HYynQutMlUrP4H1dGI5c-1">
          <mxGeometry relative="1" as="geometry" />
        </mxCell>
        <mxCell id="oSgGNJzz3xrOAS5L9g05-18" style="edgeStyle=orthogonalEdgeStyle;rounded=0;orthogonalLoop=1;jettySize=auto;html=1;exitX=1;exitY=0.5;exitDx=0;exitDy=0;entryX=0;entryY=0.5;entryDx=0;entryDy=0;" edge="1" parent="1" source="oSgGNJzz3xrOAS5L9g05-16" target="oSgGNJzz3xrOAS5L9g05-1">
          <mxGeometry relative="1" as="geometry" />
        </mxCell>
        <mxCell id="oSgGNJzz3xrOAS5L9g05-16" value="Main Power switch" style="rounded=1;whiteSpace=wrap;html=1;" vertex="1" parent="1">
          <mxGeometry x="90" y="510" width="80" height="40" as="geometry" />
        </mxCell>
        <mxCell id="oSgGNJzz3xrOAS5L9g05-19" value="Other buttons" style="rounded=1;whiteSpace=wrap;html=1;" vertex="1" parent="1">
          <mxGeometry x="190" y="270" width="80" height="40" as="geometry" />
        </mxCell>
      </root>
    </mxGraphModel>
  </diagram>
</mxfile>
